<svg xmlns="http://www.w3.org/2000/svg" xmlns:xlink="http://www.w3.org/1999/xlink" version="1.1" x="0px" y="0px" viewBox="0 0 128 160" enable-background="new 0 0 128 128" xml:space="preserve"><g><path d="M107.783,72.785c4.873,0,8.838-3.966,8.838-8.84c0-2.36-0.92-4.579-2.589-6.248s-3.888-2.588-6.246-2.588   c-0.001,0-0.003,0-0.004,0h-9.689c-0.909,0-1.81,0.139-2.676,0.411c-0.265,0.083-0.485,0.237-0.658,0.43   c-0.009-0.09-0.023-0.18-0.049-0.27l-1.76-6.168c-0.229-0.798-1.065-1.258-1.854-1.031c-0.797,0.228-1.259,1.058-1.031,1.854   l1.741,6.104c-1.278-0.364-2.574-0.574-3.855-0.574c-0.455,0-0.896,0.032-1.331,0.079c0.155-0.52,0.261-1.057,0.261-1.614   c0-1.511-0.589-2.931-1.657-3.997c-1.067-1.068-2.487-1.657-3.998-1.657c-1.51,0-2.93,0.589-3.997,1.657l-5.092,5.092   c-1.068,1.068-1.656,2.488-1.656,3.998c0,1.512,0.589,2.931,1.655,3.995c1.067,1.069,2.487,1.658,3.998,1.658   c0.559,0,1.097-0.106,1.617-0.262c-0.108,0.993-0.107,2.029,0.037,3.104c0.094,0.698,0.255,1.394,0.451,2.083l-6.098-1.74   c-0.794-0.225-1.627,0.234-1.854,1.03c-0.228,0.797,0.234,1.627,1.03,1.854l6.166,1.76c0.035,0.01,0.07,0.008,0.105,0.015   c-0.438,1.064-0.676,2.207-0.676,3.371v9.689c0,4.873,3.963,8.838,8.835,8.838c4.875,0,8.841-3.965,8.841-8.838v-3.237   c2.261-0.055,4.278-0.707,5.931-1.906l6.176,6.177c0.293,0.293,0.677,0.439,1.061,0.439s0.768-0.146,1.061-0.439   c0.586-0.586,0.586-1.535,0-2.121l-6.179-6.18c1.217-1.691,1.834-3.742,1.886-5.93L107.783,72.785z M94.375,57.098   c0.01,0.101,0.029,0.203,0.062,0.304c0.006,0.02,0.018,0.037,0.024,0.057c-0.104-0.051-0.207-0.109-0.313-0.158   C94.231,57.239,94.307,57.172,94.375,57.098z M94.43,60.871c1.018,0.627,1.99,1.375,2.869,2.254   c0.752,0.752,1.397,1.556,1.955,2.386L87.319,77.446c-0.843-0.563-1.65-1.211-2.39-1.95c-0.884-0.884-1.644-1.847-2.27-2.855   L94.43,60.871z M87.951,58.864c1.181,0,2.403,0.221,3.611,0.632L81.296,69.763c-0.25-0.742-0.433-1.492-0.534-2.244   c-0.362-2.688,0.318-5.047,1.915-6.644C83.992,59.56,85.816,58.864,87.951,58.864z M78.011,61.297   c-1.004,1.004-2.75,1.005-3.754-0.001c-0.5-0.5-0.776-1.165-0.776-1.874s0.276-1.375,0.777-1.877l5.092-5.092   c0.502-0.502,1.168-0.778,1.876-0.778c0.709,0,1.375,0.276,1.878,0.779c0.501,0.5,0.777,1.166,0.777,1.875   s-0.276,1.375-0.778,1.876L78.011,61.297z M91.589,82.625v3.355c0,3.219-2.62,5.838-5.841,5.838c-3.218,0-5.835-2.619-5.835-5.838   v-9.689c0-0.646,0.118-1.277,0.322-1.88c0.724,1.135,1.582,2.215,2.573,3.206c2.546,2.546,5.646,4.23,8.796,4.856   C91.599,82.523,91.589,82.573,91.589,82.625z M99.552,77.748c-1.314,1.314-3.138,2.009-5.272,2.009   c-1.365,0-2.786-0.309-4.176-0.853l10.617-10.618C102.119,71.842,101.813,75.486,99.552,77.748z M99.42,61.004   c-1.006-1.007-2.105-1.862-3.254-2.591c0.05-0.01,0.101-0.016,0.151-0.031c0.575-0.181,1.172-0.272,1.775-0.272h9.69   c0.001,0,0.002,0,0.003,0c1.558,0,3.022,0.606,4.125,1.709s1.71,2.568,1.71,4.127c0,3.22-2.619,5.84-5.837,5.84l-3.522-0.002   C103.647,66.717,102.015,63.599,99.42,61.004z"/><path d="M69.908,47.715l-7.959-13.783c-0.268-0.464-0.763-0.75-1.299-0.75H44.735c-0.536,0-1.031,0.286-1.299,0.75l-7.525,13.033   H20.838c-0.536,0-1.031,0.286-1.299,0.75L11.58,61.498c-0.269,0.464-0.269,1.036,0,1.5l7.959,13.783   c0.268,0.464,0.763,0.75,1.299,0.75h15.073l7.525,13.033c0.268,0.464,0.763,0.75,1.299,0.75H60.65c0.536,0,1.031-0.286,1.299-0.75   l7.959-13.783c0.269-0.464,0.269-1.036,0-1.5l-7.525-13.033l7.525-13.033C70.177,48.751,70.177,48.179,69.908,47.715z    M21.704,74.531l-7.093-12.283l7.093-12.283h14.207l7.093,12.283l-7.093,12.283H21.704z M66.877,76.031l-7.093,12.283H45.602   L38.51,76.031l7.092-12.283h14.183L66.877,76.031z M59.784,60.748H45.602L38.51,48.465l7.092-12.283h14.183l7.093,12.283   L59.784,60.748z"/></g><text x="0" y="143" fill="#000000" font-size="5px" font-weight="bold" font-family="'Helvetica Neue', Helvetica, Arial-Unicode, Arial, Sans-serif">Created by verry poernomo</text><text x="0" y="148" fill="#000000" font-size="5px" font-weight="bold" font-family="'Helvetica Neue', Helvetica, Arial-Unicode, Arial, Sans-serif">from the Noun Project</text></svg>